<svg data-v-fde0c5aa="" xmlns="http://www.w3.org/2000/svg" viewBox="0 0 300 300" class="iconLeft"><!----><defs data-v-fde0c5aa=""><linearGradient data-v-fde0c5aa="" gradientTransform="rotate(25)" id="82c9db26-e729-44dd-b474-f26238666f8d" x1="0%" y1="0%" x2="100%" y2="0%"><stop data-v-fde0c5aa="" offset="0%" stop-color="#182471" stop-opacity="1"></stop><stop data-v-fde0c5aa="" offset="100%" stop-color="#2664C8" stop-opacity="1"></stop></linearGradient></defs><rect data-v-fde0c5aa="" fill="url(#82c9db26-e729-44dd-b474-f26238666f8d)" x="0" y="0" width="300px" height="300px" class="logo-background-square"></rect><defs data-v-fde0c5aa=""><!----></defs><g data-v-fde0c5aa="" id="60e4adf6-f614-4385-b231-f8f9b51f6612" fill="#fff" transform="matrix(1.4165280058710763,0,0,1.4165280058710763,170.41876686884447,140.50926263084506)"><path d="M6.86 1.44L6.86 0.57L1.43 0.57L1.43 10.22L2.35 10.22L2.35 5.92L5.92 5.92L5.92 5.05L2.35 5.05L2.35 1.44ZM11.16 10.36C13.27 10.36 14.39 8.92 14.39 7.56C14.39 6.16 13.33 5.33 11.80 4.96L10.50 4.65C9.06 4.31 8.92 3.54 8.92 3.09C8.92 2.02 9.94 1.33 11.03 1.33C12.19 1.33 13.08 2.02 13.13 3.08L14.06 3.08C14 1.47 12.70 0.46 11.06 0.46C9.46 0.46 7.99 1.50 7.99 3.09C7.99 3.86 8.29 5.03 10.28 5.50L11.58 5.81C12.53 6.05 13.47 6.55 13.47 7.60C13.47 8.51 12.70 9.49 11.16 9.49C9.80 9.49 8.93 8.58 8.83 7.63L7.92 7.63C7.99 9.03 9.27 10.36 11.16 10.36ZM24.32 10.36C25.68 10.36 26.89 9.80 27.73 8.90L27.08 8.32C26.38 9.04 25.40 9.49 24.32 9.49C22.12 9.49 20.40 7.66 20.40 5.42C20.40 3.18 22.12 1.34 24.32 1.34C25.40 1.34 26.39 1.79 27.08 2.52L27.73 1.93C26.89 1.04 25.68 0.48 24.32 0.48C21.62 0.48 19.47 2.69 19.47 5.42C19.47 8.15 21.62 10.36 24.32 10.36ZM34.79 3.68L34.79 4.94C34.30 4.06 33.29 3.54 32.19 3.54C30.35 3.54 28.87 4.96 28.87 6.94C28.87 8.93 30.37 10.36 32.19 10.36C33.28 10.36 34.30 9.84 34.79 8.95L34.79 10.22L35.69 10.22L35.69 3.68ZM32.26 9.51C30.88 9.51 29.76 8.39 29.76 6.93C29.76 5.49 30.88 4.40 32.26 4.40C33.56 4.40 34.79 5.39 34.79 6.97C34.79 8.48 33.61 9.51 32.26 9.51ZM41.43 3.54C40.33 3.54 39.30 4.07 38.82 4.97L38.82 3.68L37.93 3.68L37.93 13.40L38.82 13.40L38.82 8.95C39.31 9.84 40.32 10.36 41.43 10.36C43.26 10.36 44.74 8.95 44.74 6.96C44.74 4.97 43.26 3.54 41.43 3.54ZM41.36 9.51C40.05 9.51 38.82 8.51 38.82 6.93C38.82 5.42 40.00 4.40 41.36 4.40C42.74 4.40 43.86 5.52 43.86 6.97C43.86 8.41 42.74 9.51 41.36 9.51ZM46.98 1.90C47.38 1.90 47.68 1.64 47.68 1.27C47.68 0.90 47.38 0.63 46.98 0.63C46.62 0.63 46.30 0.90 46.30 1.27C46.30 1.64 46.62 1.90 46.98 1.90ZM46.54 10.22L47.43 10.22L47.43 3.68L46.54 3.68ZM52.50 3.68L51.00 3.68L51.00 1.08L50.12 1.08L50.12 3.68L48.93 3.68L48.93 4.45L50.12 4.45L50.12 10.22L51.00 10.22L51.00 4.45L52.50 4.45ZM59.21 3.68L59.21 4.94C58.72 4.06 57.71 3.54 56.60 3.54C54.77 3.54 53.28 4.96 53.28 6.94C53.28 8.93 54.78 10.36 56.60 10.36C57.69 10.36 58.72 9.84 59.21 8.95L59.21 10.22L60.10 10.22L60.10 3.68ZM56.67 9.51C55.30 9.51 54.18 8.39 54.18 6.93C54.18 5.49 55.30 4.40 56.67 4.40C57.97 4.40 59.21 5.39 59.21 6.97C59.21 8.48 58.03 9.51 56.67 9.51ZM62.34 10.22L63.24 10.22L63.24 0L62.34 0Z"></path></g><defs data-v-fde0c5aa=""><!----></defs><g data-v-fde0c5aa="" id="870cb3e9-1206-466c-b877-cca3dd0dfcbb" stroke="none" fill="#fff" transform="matrix(1.388888395486088,0,0,1.388888395486088,30.277781231597384,80.48613686555905)"><path d="M88 44.8v10.5H77.5V44.8H88m0-5H77.5c-2.8 0-5 2.2-5 5v10.5c0 2.8 2.2 5 5 5H88c2.8 0 5-2.2 5-5V44.8c0-2.8-2.2-5-5-5zM55.2 44.8v10.5H44.8V44.8h10.4m0-5H44.8c-2.8 0-5 2.2-5 5v10.5c0 2.8 2.2 5 5 5h10.5c2.8 0 5-2.2 5-5V44.8c-.1-2.8-2.3-5-5.1-5zM22.5 44.8v10.5H12V44.8h10.5m0-5H12c-2.8 0-5 2.2-5 5v10.5c0 2.8 2.2 5 5 5h10.5c2.8 0 5-2.2 5-5V44.8c0-2.8-2.3-5-5-5z"></path><circle cx="33.6" cy="50" r="3.6"></circle><circle cx="66.4" cy="50" r="3.6"></circle></g><!----></svg>