<svg data-v-423bf9ae="" xmlns="http://www.w3.org/2000/svg" viewBox="0 0 344.3121933355564 60" class="font"><!----><!----><!----><g data-v-423bf9ae="" id="befa8722-f1e0-461c-a6ab-d25e16a0a313" fill="white" transform="matrix(5.853658536585366,0,0,5.853658536585366,-6.790250472906166,-24.351218618997713)"><path d="M8.68 9.18C8.64 7.69 8.79 6.31 7.67 5.19C7.01 4.54 6.08 4.24 5.04 4.24L1.16 4.24L1.16 11.59C1.16 13.55 2.02 14.21 4.90 14.21C5.94 14.21 7.01 13.92 7.67 13.26C8.53 12.40 8.64 11.37 8.69 10.26ZM6.73 9.18C6.73 10.70 6.68 11.41 6.31 11.86C5.98 12.26 5.53 12.47 4.86 12.47C3.53 12.47 3.11 12.24 3.11 11.49L3.11 5.98L4.86 5.98C5.53 5.98 5.98 6.19 6.31 6.59C6.68 7.04 6.73 7.67 6.73 9.18ZM16.24 10.64C16.25 10.25 16.27 9.84 16.27 9.49C16.27 7.63 15.54 6.12 13.23 6.12C10.92 6.12 9.77 7.27 9.77 9.93C9.77 13.44 10.82 14.39 13.29 14.39C14.99 14.39 16.25 13.58 16.25 11.49L14.62 11.49C14.62 11.86 14.32 12.74 13.30 12.74C11.83 12.74 11.58 11.97 11.58 10.64ZM11.62 9.39C11.62 8.11 12.31 7.63 13.17 7.63C14.14 7.63 14.62 8.13 14.62 9.39ZM23.10 10.35C22.97 11.68 22.68 12.56 21.27 12.56C19.50 12.56 19.39 11.12 19.39 9.77L19.39 8.90C19.39 7.39 19.45 5.89 21.27 5.89C22.46 5.89 22.86 6.54 23.04 7.56L24.86 7.56C24.86 5.26 23.30 4.16 21.27 4.16C18.24 4.16 17.44 6.26 17.44 8.96L17.44 9.80C17.44 12.19 18.24 14.29 21.27 14.29C23.56 14.29 24.91 12.91 24.91 10.35ZM31.92 14.21L31.92 6.16L30.10 6.27L28.18 6.27C25.63 6.27 25.52 8.32 25.52 10.28C25.52 12.56 25.96 14.29 28.20 14.29L30.14 13.24L30.70 14.21ZM30.10 11.66L28.71 12.38C27.62 12.38 27.34 11.75 27.34 10.28C27.34 8.81 27.62 7.91 28.71 7.91L30.10 7.91ZM44.20 14.21L44.20 8.85C44.20 7.27 43.55 6.13 42.03 6.13L39.42 7.20C39.12 6.61 38.58 6.13 37.77 6.13L35.67 7.17L35.25 6.22L33.89 6.22L33.89 14.21L35.71 14.21L35.71 8.60L37.21 7.91C37.79 7.91 38.14 8.25 38.14 9.24L38.14 14.21L39.96 14.21L39.96 8.60L41.59 7.91C42.17 7.91 42.38 8.25 42.38 9.24L42.38 14.21ZM52.15 10.64C52.16 10.25 52.18 9.84 52.18 9.49C52.18 7.63 51.45 6.12 49.14 6.12C46.83 6.12 45.68 7.27 45.68 9.93C45.68 13.44 46.73 14.39 49.20 14.39C50.90 14.39 52.16 13.58 52.16 11.49L50.53 11.49C50.53 11.86 50.23 12.74 49.21 12.74C47.74 12.74 47.49 11.97 47.49 10.64ZM47.53 9.39C47.53 8.11 48.22 7.63 49.08 7.63C50.05 7.63 50.53 8.13 50.53 9.39ZM58.16 10.60C58.16 11.55 58.00 12.77 56.60 12.77C55.33 12.77 55.06 11.55 55.06 10.54L55.06 9.81C55.06 8.75 55.37 7.74 56.60 7.74C58.00 7.74 58.16 8.72 58.16 9.87ZM59.98 10.18C59.98 7.69 59.23 6.10 56.60 6.10C53.87 6.10 53.24 7.85 53.24 10.18C53.24 12.70 53.86 14.41 56.60 14.41C59.39 14.41 59.98 12.73 59.98 10.18Z"></path></g><!----><!----></svg>